# xmcd
#
# Track frame offsets: 
#        150
#        17159
#        42962
#        68381
#
# Disc length: 1245 seconds
#
# Revision: 0
# Processed by: cddbd v1.5.2PL0 Copyright (c) Steve Scherf et al.
# Submitted via: ExactAudioCopy v0.95b4
#
DISCID=2704db04
DTITLE=Timbaland - Scream
DYEAR=2007
DGENRE=Hip-Hop
TTITLE0=Scream (ft. Keri Hilson and Nicole Scherzinger) (Clean)
TTITLE1=Scream (ft. Keri Hilson and Nicole Scherzinger)
TTITLE2=Scream (INST)
TTITLE3=Scream (Acapella)
EXTD=
EXTT0=
EXTT1=
EXTT2=
EXTT3=
PLAYORDER=
